<mxfile host="app.diagrams.net" agent="Mozilla/5.0 (X11; Linux x86_64) AppleWebKit/537.36 (KHTML, like Gecko) Chrome/128.0.0.0 Safari/537.36" version="24.7.16">
  <diagram id="C5RBs43oDa-KdzZeNtuy" name="Page-1">
    <mxGraphModel dx="662" dy="373" grid="1" gridSize="10" guides="1" tooltips="1" connect="1" arrows="1" fold="1" page="1" pageScale="1" pageWidth="827" pageHeight="1169" math="0" shadow="0">
      <root>
        <mxCell id="WIyWlLk6GJQsqaUBKTNV-0" />
        <mxCell id="WIyWlLk6GJQsqaUBKTNV-1" parent="WIyWlLk6GJQsqaUBKTNV-0" />
        <mxCell id="Bjfofu_bVKjdBsBbtAoO-6" style="edgeStyle=orthogonalEdgeStyle;rounded=0;orthogonalLoop=1;jettySize=auto;html=1;entryX=0.5;entryY=0;entryDx=0;entryDy=0;" edge="1" parent="WIyWlLk6GJQsqaUBKTNV-1" source="Bjfofu_bVKjdBsBbtAoO-0" target="Bjfofu_bVKjdBsBbtAoO-1">
          <mxGeometry relative="1" as="geometry" />
        </mxCell>
        <mxCell id="Bjfofu_bVKjdBsBbtAoO-0" value="Mulai" style="strokeWidth=2;html=1;shape=mxgraph.flowchart.terminator;whiteSpace=wrap;" vertex="1" parent="WIyWlLk6GJQsqaUBKTNV-1">
          <mxGeometry x="190" y="50" width="100" height="60" as="geometry" />
        </mxCell>
        <mxCell id="Bjfofu_bVKjdBsBbtAoO-7" style="edgeStyle=orthogonalEdgeStyle;rounded=0;orthogonalLoop=1;jettySize=auto;html=1;entryX=0.5;entryY=0;entryDx=0;entryDy=0;" edge="1" parent="WIyWlLk6GJQsqaUBKTNV-1" source="Bjfofu_bVKjdBsBbtAoO-1" target="Bjfofu_bVKjdBsBbtAoO-2">
          <mxGeometry relative="1" as="geometry" />
        </mxCell>
        <mxCell id="Bjfofu_bVKjdBsBbtAoO-1" value="Persiapan &lt;br&gt;Alat dan Bahan" style="rounded=0;whiteSpace=wrap;html=1;" vertex="1" parent="WIyWlLk6GJQsqaUBKTNV-1">
          <mxGeometry x="180" y="140" width="120" height="60" as="geometry" />
        </mxCell>
        <mxCell id="Bjfofu_bVKjdBsBbtAoO-8" style="edgeStyle=orthogonalEdgeStyle;rounded=0;orthogonalLoop=1;jettySize=auto;html=1;entryX=0.5;entryY=0;entryDx=0;entryDy=0;" edge="1" parent="WIyWlLk6GJQsqaUBKTNV-1" source="Bjfofu_bVKjdBsBbtAoO-2" target="Bjfofu_bVKjdBsBbtAoO-3">
          <mxGeometry relative="1" as="geometry" />
        </mxCell>
        <mxCell id="Bjfofu_bVKjdBsBbtAoO-2" value="Hubungkan &lt;br&gt;WEMOS ESP8266 &lt;br&gt;ke PC" style="rounded=0;whiteSpace=wrap;html=1;" vertex="1" parent="WIyWlLk6GJQsqaUBKTNV-1">
          <mxGeometry x="180" y="230" width="120" height="60" as="geometry" />
        </mxCell>
        <mxCell id="Bjfofu_bVKjdBsBbtAoO-9" style="edgeStyle=orthogonalEdgeStyle;rounded=0;orthogonalLoop=1;jettySize=auto;html=1;entryX=0.5;entryY=0;entryDx=0;entryDy=0;" edge="1" parent="WIyWlLk6GJQsqaUBKTNV-1" source="Bjfofu_bVKjdBsBbtAoO-3" target="Bjfofu_bVKjdBsBbtAoO-4">
          <mxGeometry relative="1" as="geometry" />
        </mxCell>
        <mxCell id="Bjfofu_bVKjdBsBbtAoO-3" value="Buka IDE Arduino" style="rounded=0;whiteSpace=wrap;html=1;" vertex="1" parent="WIyWlLk6GJQsqaUBKTNV-1">
          <mxGeometry x="180" y="320" width="120" height="60" as="geometry" />
        </mxCell>
        <mxCell id="Bjfofu_bVKjdBsBbtAoO-10" style="edgeStyle=orthogonalEdgeStyle;rounded=0;orthogonalLoop=1;jettySize=auto;html=1;entryX=0.5;entryY=0;entryDx=0;entryDy=0;" edge="1" parent="WIyWlLk6GJQsqaUBKTNV-1" source="Bjfofu_bVKjdBsBbtAoO-4" target="Bjfofu_bVKjdBsBbtAoO-5">
          <mxGeometry relative="1" as="geometry" />
        </mxCell>
        <mxCell id="Bjfofu_bVKjdBsBbtAoO-4" value="Inisialisasi:&lt;div&gt;- Port USB &amp;amp; Board&lt;br&gt;&lt;/div&gt;" style="shape=hexagon;perimeter=hexagonPerimeter2;whiteSpace=wrap;html=1;fixedSize=1;" vertex="1" parent="WIyWlLk6GJQsqaUBKTNV-1">
          <mxGeometry x="180" y="410" width="120" height="80" as="geometry" />
        </mxCell>
        <mxCell id="Bjfofu_bVKjdBsBbtAoO-5" value="setup()" style="ellipse;whiteSpace=wrap;html=1;aspect=fixed;" vertex="1" parent="WIyWlLk6GJQsqaUBKTNV-1">
          <mxGeometry x="200" y="520" width="80" height="80" as="geometry" />
        </mxCell>
        <mxCell id="Bjfofu_bVKjdBsBbtAoO-13" style="edgeStyle=orthogonalEdgeStyle;rounded=0;orthogonalLoop=1;jettySize=auto;html=1;" edge="1" parent="WIyWlLk6GJQsqaUBKTNV-1" source="Bjfofu_bVKjdBsBbtAoO-11" target="Bjfofu_bVKjdBsBbtAoO-12">
          <mxGeometry relative="1" as="geometry" />
        </mxCell>
        <mxCell id="Bjfofu_bVKjdBsBbtAoO-11" value="setup()" style="ellipse;whiteSpace=wrap;html=1;aspect=fixed;" vertex="1" parent="WIyWlLk6GJQsqaUBKTNV-1">
          <mxGeometry x="350" y="40" width="80" height="80" as="geometry" />
        </mxCell>
        <mxCell id="Bjfofu_bVKjdBsBbtAoO-15" style="edgeStyle=orthogonalEdgeStyle;rounded=0;orthogonalLoop=1;jettySize=auto;html=1;entryX=0.5;entryY=0;entryDx=0;entryDy=0;" edge="1" parent="WIyWlLk6GJQsqaUBKTNV-1" source="Bjfofu_bVKjdBsBbtAoO-12" target="Bjfofu_bVKjdBsBbtAoO-14">
          <mxGeometry relative="1" as="geometry" />
        </mxCell>
        <mxCell id="Bjfofu_bVKjdBsBbtAoO-12" value="- Deklarasi Variabel&lt;div&gt;- Setup pin Motor DC&lt;/div&gt;" style="rounded=0;whiteSpace=wrap;html=1;" vertex="1" parent="WIyWlLk6GJQsqaUBKTNV-1">
          <mxGeometry x="330" y="150" width="120" height="60" as="geometry" />
        </mxCell>
        <mxCell id="Bjfofu_bVKjdBsBbtAoO-14" value="loop()" style="ellipse;whiteSpace=wrap;html=1;aspect=fixed;" vertex="1" parent="WIyWlLk6GJQsqaUBKTNV-1">
          <mxGeometry x="350" y="240" width="80" height="80" as="geometry" />
        </mxCell>
        <mxCell id="Bjfofu_bVKjdBsBbtAoO-19" style="edgeStyle=orthogonalEdgeStyle;rounded=0;orthogonalLoop=1;jettySize=auto;html=1;entryX=0.5;entryY=0;entryDx=0;entryDy=0;" edge="1" parent="WIyWlLk6GJQsqaUBKTNV-1" source="Bjfofu_bVKjdBsBbtAoO-16" target="Bjfofu_bVKjdBsBbtAoO-17">
          <mxGeometry relative="1" as="geometry" />
        </mxCell>
        <mxCell id="Bjfofu_bVKjdBsBbtAoO-16" value="loop()" style="ellipse;whiteSpace=wrap;html=1;aspect=fixed;" vertex="1" parent="WIyWlLk6GJQsqaUBKTNV-1">
          <mxGeometry x="500" y="40" width="80" height="80" as="geometry" />
        </mxCell>
        <mxCell id="Bjfofu_bVKjdBsBbtAoO-17" value="analogWrite(pin, 150)" style="rounded=0;whiteSpace=wrap;html=1;" vertex="1" parent="WIyWlLk6GJQsqaUBKTNV-1">
          <mxGeometry x="480" y="150" width="120" height="60" as="geometry" />
        </mxCell>
        <mxCell id="Bjfofu_bVKjdBsBbtAoO-20" value="Selesai" style="strokeWidth=2;html=1;shape=mxgraph.flowchart.terminator;whiteSpace=wrap;" vertex="1" parent="WIyWlLk6GJQsqaUBKTNV-1">
          <mxGeometry x="490" y="240" width="100" height="60" as="geometry" />
        </mxCell>
        <mxCell id="Bjfofu_bVKjdBsBbtAoO-21" style="edgeStyle=orthogonalEdgeStyle;rounded=0;orthogonalLoop=1;jettySize=auto;html=1;entryX=0.5;entryY=0;entryDx=0;entryDy=0;entryPerimeter=0;" edge="1" parent="WIyWlLk6GJQsqaUBKTNV-1" source="Bjfofu_bVKjdBsBbtAoO-17" target="Bjfofu_bVKjdBsBbtAoO-20">
          <mxGeometry relative="1" as="geometry" />
        </mxCell>
      </root>
    </mxGraphModel>
  </diagram>
</mxfile>
